<?xml version="1.0" encoding="UTF-8" standalone="no"?>
<svg
   xmlns:dc="http://purl.org/dc/elements/1.1/"
   xmlns:cc="http://creativecommons.org/ns#"
   xmlns:rdf="http://www.w3.org/1999/02/22-rdf-syntax-ns#"
   xmlns:svg="http://www.w3.org/2000/svg"
   xmlns="http://www.w3.org/2000/svg"
   width="256mm"
   height="256mm"
   viewBox="0 0 256 256"
   version="1.1"
   id="svg849">
  <defs
     id="defs843" />
  <metadata
     id="metadata846">
    <rdf:RDF>
      <cc:Work
         rdf:about="">
        <dc:format>image/svg+xml</dc:format>
        <dc:type
           rdf:resource="http://purl.org/dc/dcmitype/StillImage" />
        <dc:title></dc:title>
      </cc:Work>
    </rdf:RDF>
  </metadata>
  <g
     id="layer1">
    <rect
       style="fill:#72a98f;fill-opacity:1;stroke-width:2.86269"
       id="rect1484"
       width="256"
       height="256"
       x="0"
       y="0" />
    <g
       id="layer1-7"
       style="fill:#ffffff;fill-opacity:1"
       transform="matrix(0.75605144,0,0,0.75605144,31.225415,31.225416)">
      <g
         id="g919"
         style="fill:#ffffff;fill-opacity:1">
        <path
           style="color:#000000;font-style:normal;font-variant:normal;font-weight:normal;font-stretch:normal;font-size:74.9059px;line-height:1.25;font-family:Riviera;-inkscape-font-specification:'Riviera, Normal';font-variant-ligatures:normal;font-variant-position:normal;font-variant-caps:normal;font-variant-numeric:normal;font-variant-alternates:normal;font-variant-east-asian:normal;font-feature-settings:normal;font-variation-settings:normal;text-indent:0;text-align:start;text-decoration:none;text-decoration-line:none;text-decoration-style:solid;text-decoration-color:#000000;letter-spacing:normal;word-spacing:normal;text-transform:none;writing-mode:lr-tb;direction:ltr;text-orientation:mixed;dominant-baseline:auto;baseline-shift:baseline;text-anchor:start;white-space:normal;shape-padding:0;shape-margin:0;inline-size:0;clip-rule:nonzero;display:inline;overflow:visible;visibility:visible;opacity:1;isolation:auto;mix-blend-mode:normal;color-interpolation:sRGB;color-interpolation-filters:linearRGB;solid-color:#000000;solid-opacity:1;vector-effect:none;fill:#ffffff;fill-opacity:1;fill-rule:nonzero;stroke:none;stroke-width:3.573;stroke-linecap:butt;stroke-linejoin:miter;stroke-miterlimit:4;stroke-dasharray:none;stroke-dashoffset:0;stroke-opacity:1;color-rendering:auto;image-rendering:auto;shape-rendering:auto;text-rendering:auto;enable-background:accumulate;stop-color:#000000;stop-opacity:1"
           d="m 55.179899,109.19862 c 2.02246,-2.17227 1.423213,-5.76775 -1.2734,-7.04115 -0.674153,-0.29962 -1.348306,-0.52434 -2.097365,-0.74906 -2.546801,-0.89887 -5.168507,-1.2734 -7.940025,-1.2734 -2.396989,0 -4.719072,0.29962 -6.966249,0.97378 -2.322083,0.59924 -4.344542,1.57302 -6.142284,2.84642 -1.797741,1.2734 -3.220953,2.92133 -4.344542,4.86888 -1.048682,1.94756 -1.573024,4.26964 -1.573024,6.96625 0,3.07114 0.599248,5.46813 1.797742,7.34078 1.198494,1.79774 2.696612,3.29586 4.494354,4.34454 1.797741,1.12359 3.820201,2.02246 5.917566,2.62171 2.172271,0.67415 4.119824,1.2734 5.992472,2.02246 1.797741,0.67415 3.295859,1.57302 4.494354,2.62171 1.198494,0.97377 1.797741,2.47189 1.797741,4.34454 0,1.19849 -0.224717,2.24717 -0.749059,3.14605 -0.524341,0.89887 -1.2734,1.64792 -2.172271,2.17227 -0.823965,0.59924 -1.797741,1.04868 -2.92133,1.3483 -1.048682,0.29963 -2.097365,0.44944 -3.220953,0.44944 -2.02246,0 -3.970013,-0.52434 -5.767755,-1.42321 -0.674153,-0.37453 -1.2734,-0.74906 -1.872647,-1.1985 -1.722836,-1.3483 -4.194731,-1.19849 -5.767754,0.29962 l -0.37453,0.37453 c -1.947553,1.87265 -1.797741,5.24342 0.524341,6.74154 1.198495,0.82396 2.471895,1.42321 3.820201,1.94755 2.92133,1.04868 6.067378,1.57302 9.213426,1.57302 2.5468,0 4.943789,-0.37453 7.265872,-1.04868 2.322083,-0.67415 4.269636,-1.64793 6.067378,-3.07114 1.722836,-1.34831 3.071142,-3.07114 4.119824,-5.0936 0.973777,-2.09737 1.498118,-4.49436 1.498118,-7.34078 0,-3.07114 -0.599247,-5.46813 -1.797741,-7.34078 -1.198495,-1.87265 -2.771519,-3.37076 -4.56926,-4.49435 -1.797742,-1.12359 -3.745295,-1.94756 -5.917566,-2.62171 -2.097365,-0.59925 -4.119825,-1.2734 -5.917566,-1.94755 -1.797742,-0.67416 -3.29586,-1.49812 -4.494354,-2.39699 -1.2734,-0.97378 -1.872648,-2.32208 -1.872648,-4.04492 0,-1.19849 0.299624,-2.17227 0.749059,-2.99624 0.524342,-0.89887 1.123589,-1.57302 1.947554,-2.09736 0.823965,-0.52434 1.722835,-0.97378 2.696612,-1.1985 0.973777,-0.22471 2.022459,-0.37453 3.146048,-0.37453 1.797741,0 3.520577,0.37453 5.093601,0.97378 0.524341,0.22472 0.898871,0.44944 1.348306,0.67415 1.797742,1.12359 4.044919,0.89888 5.468131,-0.59924 z"
           id="path870" />
        <path
           style="color:#000000;font-style:normal;font-variant:normal;font-weight:normal;font-stretch:normal;font-size:74.9059px;line-height:1.25;font-family:Riviera;-inkscape-font-specification:'Riviera, Normal';font-variant-ligatures:normal;font-variant-position:normal;font-variant-caps:normal;font-variant-numeric:normal;font-variant-alternates:normal;font-variant-east-asian:normal;font-feature-settings:normal;font-variation-settings:normal;text-indent:0;text-align:start;text-decoration:none;text-decoration-line:none;text-decoration-style:solid;text-decoration-color:#000000;letter-spacing:normal;word-spacing:normal;text-transform:none;writing-mode:lr-tb;direction:ltr;text-orientation:mixed;dominant-baseline:auto;baseline-shift:baseline;text-anchor:start;white-space:normal;shape-padding:0;shape-margin:0;inline-size:0;clip-rule:nonzero;display:inline;overflow:visible;visibility:visible;opacity:1;isolation:auto;mix-blend-mode:normal;color-interpolation:sRGB;color-interpolation-filters:linearRGB;solid-color:#000000;solid-opacity:1;vector-effect:none;fill:#ffffff;fill-opacity:1;fill-rule:nonzero;stroke:none;stroke-width:3.573;stroke-linecap:butt;stroke-linejoin:miter;stroke-miterlimit:4;stroke-dasharray:none;stroke-dashoffset:0;stroke-opacity:1;color-rendering:auto;image-rendering:auto;shape-rendering:auto;text-rendering:auto;enable-background:accumulate;stop-color:#000000;stop-opacity:1"
           d="m 43.869141,98.347656 c -2.533743,0 -5.024155,0.320696 -7.445313,1.042969 -2.517992,0.654385 -4.741498,1.723475 -6.695312,3.107425 -2.028073,1.43655 -3.627454,3.29826 -4.859375,5.43359 l -0.01367,0.0215 -0.01172,0.0234 c -1.211859,2.25061 -1.787109,4.88626 -1.787109,7.81446 0,3.30353 0.65422,6.07482 2.080078,8.30273 l 0.0078,0.0137 0.0098,0.0156 c 1.319264,1.97889 3.001767,3.67379 5.052734,4.87695 1.940574,1.21041 4.103121,2.17092 6.355469,2.81445 l -0.03906,-0.0117 c 2.174735,0.67492 4.076288,1.26411 5.857421,1.97657 l 0.01953,0.006 0.01758,0.008 c 1.614424,0.60541 2.921324,1.39697 3.945312,2.29297 l 0.02344,0.0215 0.02539,0.0215 c 0.7287,0.59206 1.138672,1.4655 1.138672,2.95703 0,0.97517 -0.174293,1.67769 -0.505859,2.24609 -0.368869,0.63235 -0.896927,1.16041 -1.529297,1.5293 l -0.07813,0.0449 -0.07227,0.0527 c -0.626125,0.45536 -1.387948,0.81713 -2.330078,1.06836 l -0.01563,0.004 -0.01563,0.004 c -0.897424,0.25641 -1.765679,0.38086 -2.730468,0.38086 -1.702088,0 -3.36043,-0.44039 -4.935547,-1.22266 -0.607378,-0.33901 -1.120954,-0.65907 -1.632813,-1.04297 l 0.0293,0.0234 c -2.42655,-1.89903 -5.894776,-1.68958 -8.101563,0.41211 l -0.01562,0.0156 -0.365235,0.36524 c -0.0018,0.002 -0.0021,0.004 -0.0039,0.006 -2.742269,2.64313 -2.514715,7.36685 0.785156,9.51172 1.343343,0.91917 2.74164,1.57563 4.154297,2.125 l 0.02148,0.008 0.02344,0.008 c 3.126981,1.1225 6.471859,1.67773 9.816406,1.67773 2.721947,0 5.2956,-0.4026 7.763672,-1.11914 2.507592,-0.728 4.698616,-1.81992 6.677734,-3.38671 1.943991,-1.52368 3.453499,-3.46529 4.597657,-5.67188 l 0.01758,-0.0332 0.01758,-0.0371 c 1.089558,-2.34675 1.664062,-5.02598 1.664062,-8.0918 0,-3.30353 -0.65422,-6.07678 -2.080078,-8.30469 -1.347886,-2.10607 -3.121171,-3.7913 -5.126953,-5.04492 -1.956611,-1.22288 -4.058797,-2.10776 -6.335937,-2.81445 l -0.01758,-0.006 -0.01953,-0.006 c -2.048752,-0.58536 -4.029338,-1.24538 -5.78125,-1.90234 -1.651066,-0.61916 -2.996069,-1.36408 -4.041015,-2.14649 -0.852336,-0.65344 -1.167969,-1.31704 -1.167969,-2.62305 0,-0.89087 0.205661,-1.52519 0.525391,-2.11718 0.41431,-0.70362 0.78213,-1.11136 1.34375,-1.46875 0.717579,-0.45664 1.440676,-0.80332 2.140624,-0.96485 0.869481,-0.20064 1.779361,-0.32812 2.744141,-0.32812 1.544125,0 3.046672,0.32396 4.441406,0.85351 0.387283,0.17032 0.702401,0.3561 1.201172,0.60547 l -0.148437,-0.082 c 2.455919,1.53495 5.70241,1.22948 7.710937,-0.88476 l 0.289063,-0.28907 0.02344,-0.0234 c 2.812319,-3.02064 1.959969,-8.08884 -1.818359,-9.87305 l -0.01953,-0.01 -0.01758,-0.008 c -0.754048,-0.33513 -1.490178,-0.576067 -2.248046,-0.804687 -2.756793,-0.970229 -5.58989,-1.373047 -8.515625,-1.373047 z m 0,3.574224 c 2.610571,0 5.014882,0.34923 7.345703,1.17187 l 0.03906,0.0137 0.04102,0.0117 c 0.7057,0.21171 1.291122,0.40947 1.855469,0.6582 1.607707,0.76467 1.951737,2.87695 0.724609,4.19922 -0.0011,0.001 -9e-4,0.003 -0.002,0.004 l -0.271485,0.27148 -0.01562,0.0156 c -0.837898,0.882 -2.086998,1.02668 -3.226563,0.31445 l -0.07227,-0.0449 -0.07617,-0.0371 c -0.378401,-0.18919 -0.805774,-0.4455 -1.44336,-0.71875 l -0.0332,-0.0137 -0.03516,-0.0137 c -1.747135,-0.66558 -3.682649,-1.0918 -5.728516,-1.0918 -1.282397,0 -2.470755,0.1731 -3.548828,0.42187 -1.247605,0.28792 -2.323556,0.83961 -3.253906,1.43164 -1.07812,0.68608 -1.904298,1.63031 -2.53125,2.70508 l -0.01367,0.0215 -0.01172,0.0215 c -0.57294,1.0504 -0.966797,2.35532 -0.966797,3.85156 0,2.1371 0.883558,4.17198 2.574219,5.46485 l 0.0059,0.006 0.0078,0.004 c 1.350944,1.01321 2.997186,1.913 4.9375,2.64063 1.831778,0.68691 3.884414,1.3703 6.015625,1.98047 2.067402,0.6416 3.861127,1.40734 5.5,2.43164 1.5897,0.99356 2.962615,2.30218 4.011719,3.9414 0.97113,1.5174 1.515625,3.54016 1.515625,6.37891 0,2.61342 -0.472673,4.71547 -1.322266,6.55664 -0.947683,1.81548 -2.123654,3.30796 -3.609375,4.4707 l -0.0039,0.002 -0.0039,0.004 c -1.616366,1.27962 -3.320458,2.13557 -5.457032,2.75586 -2.176094,0.63177 -4.395925,0.97852 -6.767578,0.97852 -2.941463,0 -5.880774,-0.49399 -8.591797,-1.46485 -1.262407,-0.4924 -2.392554,-1.02916 -3.429687,-1.74218 l -0.02148,-0.0137 -0.02148,-0.0156 c -1.325701,-0.85529 -1.398351,-2.85262 -0.255859,-3.95117 l 0.01367,-0.0137 0.355468,-0.35547 c 0.93926,-0.89453 2.414472,-0.98312 3.433594,-0.18555 l 0.01563,0.01 0.01367,0.0117 c 0.675474,0.50661 1.354862,0.92826 2.078125,1.33007 l 0.0332,0.0195 0.03516,0.0176 c 2.010795,1.0054 4.23517,1.61133 6.566407,1.61133 1.275014,0 2.498026,-0.17666 3.691406,-0.51562 1.278743,-0.34227 2.436281,-0.87387 3.443359,-1.59571 1.120792,-0.67639 2.062429,-1.61232 2.722656,-2.74414 0.717118,-1.22935 0.992188,-2.62507 0.992188,-4.04687 0,-2.24928 -0.787752,-4.36489 -2.449219,-5.72071 -1.364004,-1.18471 -3.035386,-2.17847 -4.99414,-2.91406 -1.955057,-0.78026 -3.938211,-1.39038 -6.097657,-2.06055 l -0.01953,-0.006 -0.01953,-0.006 c -1.935314,-0.55295 -3.810721,-1.38659 -5.460938,-2.41797 l -0.02344,-0.0156 -0.02344,-0.0137 c -1.525892,-0.8901 -2.827144,-2.176 -3.896484,-3.77539 -0.967049,-1.51625 -1.509766,-3.53284 -1.509766,-6.36523 0,-2.45619 0.472175,-4.45838 1.351563,-6.09961 1.012351,-1.74714 2.253316,-3.17488 3.8125,-4.2793 1.632579,-1.15641 3.444954,-2.02927 5.55664,-2.57422 l 0.0332,-0.008 0.0332,-0.01 c 2.062276,-0.61869 4.205009,-0.89844 6.453125,-0.89843 z"
           id="path872" />
        <g
           id="path861"
           style="font-style:normal;font-variant:normal;font-weight:normal;font-stretch:normal;font-size:74.9059px;line-height:1.25;font-family:Riviera;-inkscape-font-specification:'Riviera, Normal';font-variant-ligatures:normal;font-variant-caps:normal;font-variant-numeric:normal;font-variant-east-asian:normal;opacity:1;fill:#ffffff;fill-opacity:1;stroke:#72a98f;stroke-width:3.573;stroke-miterlimit:4;stroke-dasharray:none;stroke-opacity:1">
          <path
             style="color:#000000;font-style:normal;font-variant:normal;font-weight:normal;font-stretch:normal;font-size:74.9059px;line-height:1.25;font-family:Riviera;-inkscape-font-specification:'Riviera, Normal';font-variant-ligatures:normal;font-variant-position:normal;font-variant-caps:normal;font-variant-numeric:normal;font-variant-alternates:normal;font-variant-east-asian:normal;font-feature-settings:normal;font-variation-settings:normal;text-indent:0;text-align:start;text-decoration:none;text-decoration-line:none;text-decoration-style:solid;text-decoration-color:#000000;letter-spacing:normal;word-spacing:normal;text-transform:none;writing-mode:lr-tb;direction:ltr;text-orientation:mixed;dominant-baseline:auto;baseline-shift:baseline;text-anchor:start;white-space:normal;shape-padding:0;shape-margin:0;inline-size:0;clip-rule:nonzero;display:inline;overflow:visible;visibility:visible;isolation:auto;mix-blend-mode:normal;color-interpolation:sRGB;color-interpolation-filters:linearRGB;solid-color:#000000;solid-opacity:1;vector-effect:none;fill:#ffffff;fill-opacity:1;fill-rule:nonzero;stroke:none;stroke-width:3.573;stroke-linecap:butt;stroke-linejoin:miter;stroke-miterlimit:4;stroke-dasharray:none;stroke-dashoffset:0;stroke-opacity:1;color-rendering:auto;image-rendering:auto;shape-rendering:auto;text-rendering:auto;enable-background:accumulate;stop-color:#000000;stop-opacity:1"
             d="m 68.587996,139.91004 c 1.348306,3.29586 3.220954,6.14229 5.617943,8.53927 2.471894,2.32209 5.318318,4.19474 8.689084,5.46814 3.295859,1.2734 6.966248,1.94755 11.011167,1.94755 4.044919,-0.0749 7.71531,-0.74906 11.08607,-2.09737 3.37077,-1.3483 6.21719,-3.22095 8.68909,-5.61794 2.47189,-2.32208 4.34454,-5.16851 5.69285,-8.53927 1.3483,-3.29586 2.02245,-6.96625 2.02245,-11.01117 0,-4.11982 -0.67415,-7.86512 -2.02245,-11.23588 -1.34831,-3.37077 -3.22096,-6.2921 -5.69285,-8.68909 -2.4719,-2.32208 -5.31832,-4.19473 -8.68909,-5.39322 -3.37076,-1.2734 -7.041151,-1.87265 -11.08607,-1.79774 -4.044919,0 -7.715308,0.59924 -11.011167,1.94755 -3.370766,1.2734 -6.21719,3.14605 -8.689084,5.46813 -2.396989,2.39699 -4.269637,5.31832 -5.617943,8.68908 -1.348306,3.37077 -2.022459,7.19097 -2.022459,11.3108 0,4.04491 0.674153,7.7153 2.022459,11.01116 z m 8.838896,-18.87628 c 0.898871,-2.24718 2.097365,-4.19473 3.670389,-5.84266 1.573024,-1.72284 3.370766,-2.99624 5.543037,-3.97002 2.172271,-0.97377 4.644166,-1.42321 7.265872,-1.42321 2.696612,0 5.168507,0.44944 7.34078,1.42321 2.17227,0.97378 4.04492,2.24718 5.61794,3.97002 1.57302,1.64793 2.77152,3.59548 3.67039,5.84266 0.82396,2.24717 1.2734,4.71907 1.2734,7.26587 0,2.77152 -0.44944,5.31832 -1.2734,7.6404 -0.89887,2.39699 -2.09737,4.41945 -3.67039,6.06738 -1.57302,1.72283 -3.44567,3.07114 -5.61794,4.04492 -2.172273,0.97377 -4.644168,1.49811 -7.34078,1.49811 -2.621706,0 -5.093601,-0.52434 -7.265872,-1.49811 -2.172271,-0.97378 -3.970013,-2.32209 -5.543037,-4.04492 -1.573024,-1.64793 -2.771518,-3.67039 -3.670389,-6.06738 -0.823965,-2.32208 -1.2734,-4.86888 -1.2734,-7.6404 0,-2.5468 0.449435,-5.0187 1.2734,-7.26587 z"
             id="path876" />
          <path
             style="color:#000000;font-style:normal;font-variant:normal;font-weight:normal;font-stretch:normal;font-size:74.9059px;line-height:1.25;font-family:Riviera;-inkscape-font-specification:'Riviera, Normal';font-variant-ligatures:normal;font-variant-position:normal;font-variant-caps:normal;font-variant-numeric:normal;font-variant-alternates:normal;font-variant-east-asian:normal;font-feature-settings:normal;font-variation-settings:normal;text-indent:0;text-align:start;text-decoration:none;text-decoration-line:none;text-decoration-style:solid;text-decoration-color:#000000;letter-spacing:normal;word-spacing:normal;text-transform:none;writing-mode:lr-tb;direction:ltr;text-orientation:mixed;dominant-baseline:auto;baseline-shift:baseline;text-anchor:start;white-space:normal;shape-padding:0;shape-margin:0;inline-size:0;clip-rule:nonzero;display:inline;overflow:visible;visibility:visible;isolation:auto;mix-blend-mode:normal;color-interpolation:sRGB;color-interpolation-filters:linearRGB;solid-color:#000000;solid-opacity:1;vector-effect:none;fill:#ffffff;fill-opacity:1;fill-rule:nonzero;stroke:none;stroke-linecap:butt;stroke-linejoin:miter;stroke-miterlimit:4;stroke-dasharray:none;stroke-dashoffset:0;stroke-opacity:1;color-rendering:auto;image-rendering:auto;shape-rendering:auto;text-rendering:auto;enable-background:accumulate;stop-color:#000000;stop-opacity:1"
             d="m 93.890625,99.699219 c -4.206371,0.0016 -8.10454,0.626511 -11.648437,2.072261 -3.591165,1.36041 -6.644122,3.36906 -9.259766,5.82618 l -0.01953,0.0176 -0.01953,0.0215 c -2.581212,2.58121 -4.585713,5.71722 -6.013671,9.28711 -1.444906,3.61227 -2.150391,7.65989 -2.150391,11.97461 0,4.24341 0.709016,8.15459 2.154297,11.6875 1.431313,3.49876 3.441709,6.5589 6.009765,9.12695 l 0.01953,0.0195 0.01953,0.0195 c 2.620756,2.46193 5.678997,4.47347 9.279297,5.83399 8.42e-4,3.2e-4 0.0011,0.002 0.002,0.002 3.511117,1.35487 7.403702,2.06445 11.642578,2.06445 h 0.01563 l 0.01758,-0.002 c 4.223318,-0.0782 8.121483,-0.78648 11.716793,-2.22461 3.572,-1.42879 6.62695,-3.43847 9.25391,-5.98242 2.66765,-2.50809 4.68744,-5.58708 6.11718,-9.15625 l 0.002,-0.006 c 1.44372,-3.53143 2.15429,-7.44048 2.15429,-11.68164 0,-4.31471 -0.70888,-8.2966 -2.15039,-11.90039 -1.42796,-3.5699 -3.43847,-6.71856 -6.10742,-9.30664 l -0.0117,-0.01 -0.01,-0.01 c -2.6179,-2.45923 -5.68195,-4.48037 -9.30078,-5.76953 -3.58812,-1.35257 -7.48609,-1.980556 -11.712891,-1.904301 z m 0.01563,3.570311 h 0.01563 0.01758 c 3.84856,-0.0713 7.278855,0.49623 10.421875,1.68359 l 0.0156,0.006 0.0176,0.006 c 3.10999,1.10577 5.72994,2.82473 8.04883,5 2.27138,2.20464 4.00413,4.89412 5.27148,8.0625 1.25509,3.13774 1.89454,6.64734 1.89454,10.57227 0,3.84642 -0.63735,7.27517 -1.88868,10.33398 l -0.002,0.008 -0.004,0.006 c -1.26526,3.16315 -2.9868,5.76884 -5.25586,7.90039 l -0.0117,0.01 -0.01,0.01 c -2.31368,2.24357 -4.94621,3.97693 -8.10938,5.24219 -3.14172,1.25669 -6.579639,1.89368 -10.439446,1.96679 -3.838934,-0.002 -7.276903,-0.63703 -10.34961,-1.82422 l -0.0059,-0.004 -0.0059,-0.002 c -3.131867,-1.18315 -5.760181,-2.91042 -8.078125,-5.08398 -2.215551,-2.22134 -3.945831,-4.8448 -5.207031,-7.92773 -1.251332,-3.05882 -1.890626,-6.48953 -1.890626,-10.33594 0,-3.92494 0.642825,-7.51722 1.894532,-10.64649 1.264726,-3.16181 3.002072,-5.85745 5.205078,-8.0664 2.31767,-2.17306 4.944814,-3.90103 8.076172,-5.08399 l 0.02148,-0.008 0.02344,-0.01 c 3.037345,-1.24255 6.465507,-1.81445 10.333984,-1.81445 z m 0,4.74219 c -2.82588,0 -5.549437,0.48331 -7.996094,1.58008 -2.360538,1.05817 -4.385864,2.48895 -6.117187,4.38086 -1.738787,1.82558 -3.057852,3.97958 -4.025391,6.39843 l -0.0098,0.0234 -0.0078,0.0234 c -0.897454,2.44759 -1.382812,5.12388 -1.382812,7.88086 0,2.96465 0.483785,5.72117 1.376953,8.23828 l 0.0039,0.0156 0.0059,0.0137 c 0.964955,2.57321 2.284121,4.81917 4.044922,6.66601 1.712779,1.8706 3.722285,3.37827 6.111328,4.44922 2.415454,1.08278 5.136189,1.65625 7.996094,1.65625 2.928195,0 5.65681,-0.57347 8.072272,-1.65625 2.37606,-1.06514 4.45299,-2.55898 6.18554,-4.45117 1.75986,-1.84647 3.08031,-4.09176 4.04492,-6.66406 l 0.004,-0.0137 0.006,-0.0156 c 0.89316,-2.5171 1.37695,-5.27362 1.37695,-8.23828 0,-2.75698 -0.48536,-5.43327 -1.38281,-7.88086 l -0.01,-0.0234 -0.01,-0.0234 c -0.96719,-2.41797 -2.2856,-4.57132 -4.02344,-6.39648 -1.751,-1.91365 -3.8439,-3.33048 -6.1914,-4.38281 -2.446665,-1.09677 -5.177158,-1.58008 -8.072272,-1.58008 z m 0,3.57226 c 2.49811,0 4.711487,0.41681 6.609375,1.26758 1.9915,0.89275 3.63675,2.01976 5.0293,3.54492 l 0.0137,0.0137 0.0137,0.0137 c 1.39386,1.46024 2.46491,3.1899 3.29101,5.24609 0.74572,2.04138 1.1582,4.3001 1.1582,6.62891 0,2.57468 -0.41527,4.90859 -1.16796,7.0332 -0.83044,2.20751 -1.90388,3.99844 -3.28125,5.44141 l -0.0137,0.0156 -0.0137,0.0137 c -1.40992,1.54421 -3.069,2.74039 -5.0293,3.61915 -1.929091,0.86475 -4.144346,1.34179 -6.609375,1.34179 -2.383507,0 -4.606068,-0.47704 -6.535156,-1.34179 -1.946303,-0.87249 -3.526106,-2.05409 -4.955078,-3.61915 l -0.01367,-0.0137 -0.01367,-0.0156 c -1.377372,-1.44296 -2.448857,-3.23389 -3.279297,-5.44141 -0.752706,-2.1246 -1.169922,-4.45852 -1.169922,-7.0332 0,-2.32599 0.412244,-4.58167 1.15625,-6.6211 0.826556,-2.05991 1.897192,-3.79166 3.292969,-5.2539 l 0.01367,-0.0137 0.01367,-0.0137 c 1.411584,-1.54602 2.977568,-2.65844 4.955078,-3.54492 1.897885,-0.85077 4.117624,-1.26758 6.535156,-1.26758 z"
             id="path878" />
        </g>
        <g
           id="path863"
           style="font-style:normal;font-variant:normal;font-weight:normal;font-stretch:normal;font-size:74.9059px;line-height:1.25;font-family:Riviera;-inkscape-font-specification:'Riviera, Normal';font-variant-ligatures:normal;font-variant-caps:normal;font-variant-numeric:normal;font-variant-east-asian:normal;opacity:1;fill:#ffffff;fill-opacity:1;stroke:#72a98f;stroke-width:3.573;stroke-miterlimit:4;stroke-dasharray:none;stroke-opacity:1">
          <path
             style="color:#000000;font-style:normal;font-variant:normal;font-weight:normal;font-stretch:normal;font-size:74.9059px;line-height:1.25;font-family:Riviera;-inkscape-font-specification:'Riviera, Normal';font-variant-ligatures:normal;font-variant-position:normal;font-variant-caps:normal;font-variant-numeric:normal;font-variant-alternates:normal;font-variant-east-asian:normal;font-feature-settings:normal;font-variation-settings:normal;text-indent:0;text-align:start;text-decoration:none;text-decoration-line:none;text-decoration-style:solid;text-decoration-color:#000000;letter-spacing:normal;word-spacing:normal;text-transform:none;writing-mode:lr-tb;direction:ltr;text-orientation:mixed;dominant-baseline:auto;baseline-shift:baseline;text-anchor:start;white-space:normal;shape-padding:0;shape-margin:0;inline-size:0;clip-rule:nonzero;display:inline;overflow:visible;visibility:visible;isolation:auto;mix-blend-mode:normal;color-interpolation:sRGB;color-interpolation-filters:linearRGB;solid-color:#000000;solid-opacity:1;vector-effect:none;fill:#ffffff;fill-opacity:1;fill-rule:nonzero;stroke:none;stroke-width:3.573;stroke-linecap:butt;stroke-linejoin:miter;stroke-miterlimit:4;stroke-dasharray:none;stroke-dashoffset:0;stroke-opacity:1;color-rendering:auto;image-rendering:auto;shape-rendering:auto;text-rendering:auto;enable-background:accumulate;stop-color:#000000;stop-opacity:1"
             d="m 128.96202,105.37842 v 34.00728 c 0,0.74906 0.14981,1.42321 0.59925,2.02246 l 7.56549,10.78645 c 0.59925,0.97378 1.64793,1.49812 2.84643,1.49812 h 8.23965 c 3.14605,0 6.29209,-0.52434 9.58795,-1.57303 3.22096,-1.04868 6.14229,-2.6217 8.8389,-4.71907 2.6217,-2.17227 4.79398,-4.79398 6.44191,-8.08983 1.72283,-3.22096 2.5468,-7.04116 2.5468,-11.46061 0,-4.41945 -0.74906,-8.23965 -2.17227,-11.4606 -1.49812,-3.22095 -3.44568,-5.91757 -5.84266,-8.08984 -2.4719,-2.09736 -5.24342,-3.74529 -8.38947,-4.79397 -3.22095,-1.04869 -6.51681,-1.57303 -9.88757,-1.57303 h -16.92874 c -1.94755,0 -3.44567,1.57303 -3.44567,3.44567 z m 16.02986,39.99975 c -1.12358,0 -2.24717,-0.59924 -2.84642,-1.49812 l -3.44567,-5.0936 c -0.37453,-0.59924 -0.59925,-1.2734 -0.59925,-1.94755 v -23.07102 c 0,-1.94755 1.57302,-3.52057 3.52058,-3.52057 h 4.94379 c 2.77152,0 5.39322,0.37453 7.79021,1.04868 2.32208,0.59925 4.41945,1.64793 6.14228,3.07114 1.72284,1.34831 3.07115,3.14605 4.04492,5.39323 0.97378,2.24717 1.42322,4.94378 1.42322,8.08983 0,3.14605 -0.52435,5.84266 -1.64793,8.08984 -1.04869,2.17227 -2.5468,3.97001 -4.49436,5.39322 -1.87265,1.34831 -4.11982,2.39699 -6.66662,3.07115 -2.5468,0.67415 -5.24342,0.97377 -8.16475,0.97377 z"
             id="path882" />
          <path
             style="color:#000000;font-style:normal;font-variant:normal;font-weight:normal;font-stretch:normal;font-size:74.9059px;line-height:1.25;font-family:Riviera;-inkscape-font-specification:'Riviera, Normal';font-variant-ligatures:normal;font-variant-position:normal;font-variant-caps:normal;font-variant-numeric:normal;font-variant-alternates:normal;font-variant-east-asian:normal;font-feature-settings:normal;font-variation-settings:normal;text-indent:0;text-align:start;text-decoration:none;text-decoration-line:none;text-decoration-style:solid;text-decoration-color:#000000;letter-spacing:normal;word-spacing:normal;text-transform:none;writing-mode:lr-tb;direction:ltr;text-orientation:mixed;dominant-baseline:auto;baseline-shift:baseline;text-anchor:start;white-space:normal;shape-padding:0;shape-margin:0;inline-size:0;clip-rule:nonzero;display:inline;overflow:visible;visibility:visible;isolation:auto;mix-blend-mode:normal;color-interpolation:sRGB;color-interpolation-filters:linearRGB;solid-color:#000000;solid-opacity:1;vector-effect:none;fill:#ffffff;fill-opacity:1;fill-rule:nonzero;stroke:none;stroke-linecap:butt;stroke-linejoin:miter;stroke-miterlimit:4;stroke-dasharray:none;stroke-dashoffset:0;stroke-opacity:1;color-rendering:auto;image-rendering:auto;shape-rendering:auto;text-rendering:auto;enable-background:accumulate;stop-color:#000000;stop-opacity:1"
             d="m 132.4082,100.14648 c -2.90951,0 -5.23242,2.40698 -5.23242,5.23243 v 34.00586 c 0,0.98725 0.23604,2.13439 0.95703,3.0957 l 7.53125,10.74023 -0.0586,-0.0898 c 0.9368,1.52229 2.64763,2.34766 4.36719,2.34766 h 8.24023 c 3.34455,0 6.68399,-0.56014 10.12891,-1.65625 l 0.006,-0.002 0.006,-0.002 c 3.41866,-1.11305 6.53433,-2.79232 9.38281,-5.00781 l 0.0215,-0.0176 0.0215,-0.0176 c 2.78483,-2.30744 5.127,-5.13485 6.88476,-8.64062 1.88143,-3.52609 2.75,-7.65165 2.75,-12.28516 0,-4.62132 -0.78361,-8.695 -2.32422,-12.18164 l -0.006,-0.0156 -0.008,-0.0156 c -1.58701,-3.41206 -3.67836,-6.31721 -6.26367,-8.66016 l -0.0215,-0.0195 -0.0215,-0.0195 c -2.6222,-2.22489 -5.60037,-4.00026 -8.98047,-5.12695 l -0.006,-0.002 -0.006,-0.002 c -3.39539,-1.10549 -6.88538,-1.66016 -10.4414,-1.66016 z m 0,3.57227 h 16.92774 c 3.18073,0 6.28015,0.4935 9.32226,1.48242 7.6e-4,2.5e-4 0.001,0.002 0.002,0.002 2.90239,0.96784 5.45987,2.48254 7.77539,4.44336 2.19404,1.99433 3.98943,4.46875 5.39257,7.48047 1.30177,2.95244 2.01368,6.51193 2.01368,10.72266 0,4.1974 -0.77846,7.70732 -2.33594,10.61914 l -0.0117,0.0215 -0.01,0.0215 c -1.53209,3.06415 -3.5234,5.46683 -5.96485,7.49414 -2.53826,1.97033 -5.25721,3.43463 -8.27148,4.41602 -3.14221,0.99862 -6.09144,1.48437 -9.03516,1.48437 h -8.24023 c -0.67744,0 -1.06252,-0.22317 -1.32422,-0.64844 l -0.0273,-0.0449 -7.61328,-10.85351 -0.0176,-0.0234 c -0.17789,-0.23719 -0.24218,-0.44031 -0.24218,-0.95117 v -34.00586 c 0,-0.91984 0.67457,-1.66016 1.66015,-1.66016 z m 9.21289,4.74219 c -2.90951,0 -5.30664,2.39713 -5.30664,5.30664 v 23.07226 c 0,1.07116 0.34762,2.05503 0.8711,2.89258 l 0.0156,0.0274 3.45703,5.11132 c 8.1e-4,0.001 0.003,7.5e-4 0.004,0.002 0.96795,1.44931 2.57277,2.29101 4.33008,2.29101 3.04348,0 5.89931,-0.31273 8.62109,-1.0332 2.73853,-0.72491 5.18775,-1.86002 7.25391,-3.34766 l 0.006,-0.004 0.004,-0.004 c 2.17116,-1.58661 3.87258,-3.63005 5.04297,-6.05078 1.2754,-2.55687 1.83203,-5.53587 1.83203,-8.875 0,-3.3162 -0.46895,-6.25724 -1.57031,-8.79883 -1.07201,-2.47389 -2.60409,-4.53296 -4.57031,-6.07617 -1.93215,-1.59045 -4.25473,-2.74599 -6.79883,-3.4043 -2.55108,-0.71502 -5.32494,-1.10937 -8.24805,-1.10937 z m 0,3.57226 h 4.94336 c 2.61058,0 5.07047,0.35351 7.30664,0.98242 l 0.0195,0.006 0.0176,0.004 c 2.08582,0.53828 3.94501,1.47452 5.45118,2.71875 l 0.0176,0.0156 0.0195,0.0137 c 1.47215,1.15211 2.6331,2.68317 3.50586,4.69726 0.8462,1.95276 1.27735,4.403 1.27735,7.37891 0,2.94755 -0.49359,5.35631 -1.46094,7.29101 l -0.004,0.0117 -0.006,0.0117 c -0.92562,1.91735 -2.21574,3.46374 -3.93359,4.72071 -1.6785,1.20783 -3.7227,2.16998 -6.07617,2.79296 -2.37182,0.62784 -4.90785,0.91407 -7.70703,0.91407 -0.48839,0 -1.12857,-0.35691 -1.35938,-0.70313 l -0.004,-0.004 -3.41602,-5.05079 c -0.22282,-0.35882 -0.32617,-0.71862 -0.32617,-0.99414 v -23.07226 c 0,-0.98559 0.74877,-1.73438 1.73437,-1.73438 z"
             id="path884" />
        </g>
        <g
           id="path865"
           style="font-style:normal;font-variant:normal;font-weight:normal;font-stretch:normal;font-size:74.9059px;line-height:1.25;font-family:Riviera;-inkscape-font-specification:'Riviera, Normal';font-variant-ligatures:normal;font-variant-caps:normal;font-variant-numeric:normal;font-variant-east-asian:normal;opacity:1;fill:#ffffff;fill-opacity:1;stroke:#72a98f;stroke-width:3.573;stroke-miterlimit:4;stroke-dasharray:none;stroke-opacity:1">
          <path
             style="color:#000000;font-style:normal;font-variant:normal;font-weight:normal;font-stretch:normal;font-size:74.9059px;line-height:1.25;font-family:Riviera;-inkscape-font-specification:'Riviera, Normal';font-variant-ligatures:normal;font-variant-position:normal;font-variant-caps:normal;font-variant-numeric:normal;font-variant-alternates:normal;font-variant-east-asian:normal;font-feature-settings:normal;font-variation-settings:normal;text-indent:0;text-align:start;text-decoration:none;text-decoration-line:none;text-decoration-style:solid;text-decoration-color:#000000;letter-spacing:normal;word-spacing:normal;text-transform:none;writing-mode:lr-tb;direction:ltr;text-orientation:mixed;dominant-baseline:auto;baseline-shift:baseline;text-anchor:start;white-space:normal;shape-padding:0;shape-margin:0;inline-size:0;clip-rule:nonzero;display:inline;overflow:visible;visibility:visible;isolation:auto;mix-blend-mode:normal;color-interpolation:sRGB;color-interpolation-filters:linearRGB;solid-color:#000000;solid-opacity:1;vector-effect:none;fill:#ffffff;fill-opacity:1;fill-rule:nonzero;stroke:none;stroke-width:3.573;stroke-linecap:butt;stroke-linejoin:miter;stroke-miterlimit:4;stroke-dasharray:none;stroke-dashoffset:0;stroke-opacity:1;color-rendering:auto;image-rendering:auto;shape-rendering:auto;text-rendering:auto;enable-background:accumulate;stop-color:#000000;stop-opacity:1"
             d="m 192.18252,153.3182 17.60288,-7.6404 c 4.79398,-2.09737 10.41192,0.22471 12.35948,5.1685 0.67415,1.72284 2.32208,2.84643 4.19473,2.84643 h 0.22472 c 3.29585,0 5.54303,-3.37077 4.19473,-6.367 L 212.2573,104.70427 c -0.74906,-1.64793 -2.39699,-2.77152 -4.19473,-2.77152 h -1.94756 c -1.87264,0 -3.52057,1.12359 -4.19473,2.77152 l -18.35194,42.62146 c -1.34831,2.99623 0.89887,6.367 4.19473,6.367 h 2.62171 c 0.59924,0 1.19849,-0.14981 1.79774,-0.37453 z m 19.25081,-17.60289 -5.31832,2.32208 c -3.67038,1.57303 -7.56549,-2.02245 -6.06737,-5.84266 l 2.99623,-8.08983 c 1.49812,-3.89511 7.04116,-3.89511 8.61418,0 l 2.17227,5.76775 c 0.89887,2.32208 -0.14981,4.86889 -2.39699,5.84266 z"
             id="path888" />
          <path
             style="color:#000000;font-style:normal;font-variant:normal;font-weight:normal;font-stretch:normal;font-size:74.9059px;line-height:1.25;font-family:Riviera;-inkscape-font-specification:'Riviera, Normal';font-variant-ligatures:normal;font-variant-position:normal;font-variant-caps:normal;font-variant-numeric:normal;font-variant-alternates:normal;font-variant-east-asian:normal;font-feature-settings:normal;font-variation-settings:normal;text-indent:0;text-align:start;text-decoration:none;text-decoration-line:none;text-decoration-style:solid;text-decoration-color:#000000;letter-spacing:normal;word-spacing:normal;text-transform:none;writing-mode:lr-tb;direction:ltr;text-orientation:mixed;dominant-baseline:auto;baseline-shift:baseline;text-anchor:start;white-space:normal;shape-padding:0;shape-margin:0;inline-size:0;clip-rule:nonzero;display:inline;overflow:visible;visibility:visible;isolation:auto;mix-blend-mode:normal;color-interpolation:sRGB;color-interpolation-filters:linearRGB;solid-color:#000000;solid-opacity:1;vector-effect:none;fill:#ffffff;fill-opacity:1;fill-rule:nonzero;stroke:none;stroke-linecap:butt;stroke-linejoin:miter;stroke-miterlimit:4;stroke-dasharray:none;stroke-dashoffset:0;stroke-opacity:1;color-rendering:auto;image-rendering:auto;shape-rendering:auto;text-rendering:auto;enable-background:accumulate;stop-color:#000000;stop-opacity:1"
             d="m 206.11523,100.14648 c -2.58724,0 -4.89494,1.55203 -5.84765,3.88086 l -18.32813,42.56446 c -1.8589,4.13088 1.31029,8.88672 5.82422,8.88672 h 2.6211 c 0.89699,0 1.70431,-0.21773 2.42578,-0.48829 l 0.041,-0.0156 0.043,-0.0176 17.60547,-7.64062 0.002,-0.002 c 3.88082,-1.69786 8.39241,0.15628 9.98047,4.1875 0.93918,2.39508 3.27167,3.97657 5.85742,3.97657 h 0.22461 c 4.51324,0 7.6813,-4.75433 5.82422,-8.88477 l -18.49805,-42.61523 -0.008,-0.0137 c -1.03092,-2.26803 -3.27819,-3.81836 -5.82031,-3.81836 z m 0,3.57227 h 1.94727 c 1.05336,0 2.10116,0.69678 2.56836,1.72461 l 18.49414,42.60547 0.006,0.01 c 0.83771,1.86158 -0.48863,3.84766 -2.56641,3.84766 h -0.22461 c -1.15805,0 -2.12105,-0.66266 -2.53125,-1.71094 v -0.002 l -0.002,-0.002 c -2.30706,-5.85636 -9.02919,-8.64727 -14.73633,-6.15039 l -17.52148,7.60546 c -0.47372,0.17699 -0.86412,0.25977 -1.16406,0.25977 h -2.6211 c -2.07779,0 -3.40412,-1.98607 -2.5664,-3.84766 l 0.006,-0.0137 18.36524,-42.64844 0.006,-0.0156 c 0.39561,-0.96703 1.38298,-1.66211 2.54101,-1.66211 z m 1.20704,15.67773 c -2.42502,0 -4.93125,1.42983 -5.94532,4.06641 l -0.004,0.0117 -2.98828,8.06836 c -1.01074,2.57737 -0.18664,5.26696 1.52929,6.89258 1.71593,1.62562 4.40582,2.31492 6.9043,1.24414 l 0.006,-0.002 5.32031,-2.32226 c 3.10385,-1.34499 4.57805,-4.95854 3.35156,-8.12695 l -2.17382,-5.77344 -0.008,-0.0195 c -1.05934,-2.62316 -3.56717,-4.03907 -5.99218,-4.03907 z m 0,3.57422 c 1.11342,0 2.16362,0.53096 2.67773,1.80078 4e-4,9.9e-4 0.002,9.7e-4 0.002,0.002 l 2.16016,5.73633 0.002,0.008 c 0.57126,1.47574 -0.0509,2.95604 -1.4414,3.55859 h -0.002 l -0.002,0.002 -5.30664,2.31641 c -1.1719,0.50225 -2.26633,0.18118 -3.04102,-0.55273 -0.77468,-0.73392 -1.14754,-1.75131 -0.66015,-2.99414 l 0.006,-0.0156 2.99414,-8.08594 c 0.48405,-1.25852 1.49704,-1.77539 2.61133,-1.77539 z"
             id="path890" />
        </g>
        <path
           style="color:#000000;font-style:normal;font-variant:normal;font-weight:normal;font-stretch:normal;font-size:medium;line-height:normal;font-family:sans-serif;font-variant-ligatures:normal;font-variant-position:normal;font-variant-caps:normal;font-variant-numeric:normal;font-variant-alternates:normal;font-variant-east-asian:normal;font-feature-settings:normal;font-variation-settings:normal;text-indent:0;text-align:start;text-decoration:none;text-decoration-line:none;text-decoration-style:solid;text-decoration-color:#000000;letter-spacing:normal;word-spacing:normal;text-transform:none;writing-mode:lr-tb;direction:ltr;text-orientation:mixed;dominant-baseline:auto;baseline-shift:baseline;text-anchor:start;white-space:normal;shape-padding:0;shape-margin:0;inline-size:0;clip-rule:nonzero;display:inline;overflow:visible;visibility:visible;opacity:1;isolation:auto;mix-blend-mode:normal;color-interpolation:sRGB;color-interpolation-filters:linearRGB;solid-color:#000000;solid-opacity:1;vector-effect:none;fill:#ffffff;fill-opacity:1;fill-rule:nonzero;stroke:none;stroke-width:0.582577;stroke-linecap:butt;stroke-linejoin:miter;stroke-miterlimit:4;stroke-dasharray:none;stroke-dashoffset:0;stroke-opacity:1;color-rendering:auto;image-rendering:auto;shape-rendering:auto;text-rendering:auto;enable-background:accumulate;stop-color:#000000;stop-opacity:1"
           d="m 235.34679,195.94733 c 2.70138,-2.5554 7.88821,-7.88821 7.88821,-7.88821 0.77249,0.68919 1.78793,1.11157 2.90415,1.11157 2.41362,0 4.36934,-1.95631 4.36934,-4.36934 12.3559,-87.048587 0,-105.703385 0,-113.602699 0,-2.413036 -1.95572,-4.369333 -4.36934,-4.369333 -1.11681,0 -2.13223,0.422368 -2.90415,1.111559 l -9.3262,-10.045203 c -1.66235,-1.7905 -2.58171,-2.717916 -6.68499,-2.717916 H 21.846671 c -3.803558,0 -5.11998,2.448251 -6.684984,4.155911 l -7.8882096,8.607206 c -0.699462,0.763213 -1.78793,-1.111558 -2.904144,-1.111558 -2.413627,0 -4.36933395555558,1.956297 -4.36933395555558,4.369334 V 184.80135 c 0,2.41303 1.95570695555558,4.36934 4.36933395555558,4.36934 1.116798,0 2.132234,-0.42238 2.904144,-1.11157 0.773201,-0.69034 4.0604806,6.21747 7.8882096,10.0452 0.819697,0.8197 1.631731,2.71792 6.684984,2.71792 H 226.50483 c 4.49717,0 5.92569,-2.11623 8.84196,-4.87491 z M 234.58827,87.338964 c -2.11987,61.606246 7.93168,57.241676 3.40179,87.936646 -1.0267,6.95697 -7.91598,12.92974 -14.9175,12.27225 C 158.25788,181.46132 76.160795,233.64091 65.500587,69.486107 154.79955,80.682702 187.66996,66.631984 224.0175,71.475367 c 8.89627,1.185446 10.81262,8.835311 10.57077,15.863597 z M 14.030335,173.99049 C 26.332432,129.7662 9.2482387,117.25535 14.559502,81.480333 15.592235,74.52413 20.334597,71.370128 26.831735,68.678926 c 3.500655,-1.45002 26.901129,0.807181 26.901129,0.807181 7.23642,34.818503 2.260934,45.831583 14.50285,75.213703 C 97.779305,194.40563 101.2914,199.9572 26.83232,186.26274 8.9895868,182.98112 14.030335,173.99049 14.030335,173.99049 Z"
           id="path913" />
      </g>
    </g>
  </g>
</svg>
