<?xml version="1.0" standalone="no"?>
<!DOCTYPE svg PUBLIC "-//W3C//DTD SVG 20010904//EN"
 "http://www.w3.org/TR/2001/REC-SVG-20010904/DTD/svg10.dtd">
<svg version="1.0" xmlns="http://www.w3.org/2000/svg"
 width="968.000000pt" height="968.000000pt" viewBox="0 0 968.000000 968.000000"
 preserveAspectRatio="xMidYMid meet">
<metadata>
Created by potrace 1.11, written by Peter Selinger 2001-2013
</metadata>
<g transform="translate(0.000000,968.000000) scale(0.100000,-0.100000)"
fill="#000000" stroke="none">
<path d="M723 7569 c-38 -18 -84 -60 -146 -131 -21 -24 -153 -169 -218 -239
-14 -15 -39 -43 -56 -62 -35 -40 -43 -40 -93 -9 -19 12 -43 22 -53 22 -48 0
-137 -61 -137 -94 0 -9 -4 -16 -10 -16 -6 0 -10 -750 -10 -2190 0 -1961 2
-2193 16 -2228 21 -53 56 -81 117 -94 46 -10 58 -9 100 10 26 12 53 19 60 16
7 -2 46 -55 87 -116 146 -218 231 -311 312 -339 51 -18 193 -18 4013 -16
l3960 2 50 27 c62 33 79 47 300 268 l181 180 37 -19 c53 -27 126 -22 170 12
42 32 64 76 71 142 3 28 7 59 10 70 2 11 7 49 11 85 4 36 9 74 11 85 2 11 6
43 9 70 3 28 8 64 11 80 3 17 7 46 9 65 7 70 16 156 20 180 3 14 7 54 10 90 4
36 8 72 10 80 3 8 7 49 10 90 4 41 8 89 10 105 1 17 6 59 9 95 3 36 8 85 11
110 8 76 16 171 20 245 2 39 6 97 9 130 23 276 30 483 30 895 1 482 -8 665
-48 975 -2 22 -8 65 -12 95 -7 57 -11 85 -14 85 -1 0 -3 14 -5 30 -4 36 -11
74 -31 175 -9 41 -17 82 -19 90 -2 8 -13 56 -25 105 -32 135 -42 185 -45 237
-7 97 -43 153 -114 177 -49 16 -81 14 -126 -9 l-40 -21 -50 55 c-296 322 -352
379 -395 402 -34 19 -138 19 -4010 22 l-3975 2 -42 -21z m842 -484 c79 -5 164
-11 280 -20 195 -16 187 -14 191 -38 10 -55 15 -84 19 -97 2 -8 7 -31 10 -50
3 -19 8 -42 10 -50 2 -8 7 -35 10 -60 3 -25 8 -52 10 -60 3 -8 9 -46 15 -85 5
-38 12 -81 15 -95 2 -14 7 -43 10 -65 2 -22 7 -58 10 -80 3 -22 8 -56 10 -75
2 -19 6 -55 10 -80 9 -74 14 -121 21 -195 7 -79 11 -117 18 -190 3 -27 8 -77
11 -110 3 -33 7 -71 10 -85 2 -14 6 -54 10 -90 3 -36 7 -76 10 -90 2 -14 6
-50 9 -80 6 -56 11 -91 22 -145 3 -16 7 -41 9 -55 4 -25 11 -64 20 -110 3 -14
7 -34 9 -45 2 -11 11 -49 20 -85 9 -36 18 -74 21 -85 2 -11 11 -45 20 -75 9
-30 17 -62 19 -71 11 -44 101 -303 142 -406 41 -103 69 -157 122 -239 6 -10
18 -30 24 -44 7 -14 15 -27 18 -30 3 -3 11 -16 19 -30 8 -14 50 -85 93 -158
43 -73 78 -137 78 -142 0 -6 5 -10 10 -10 6 0 10 -4 10 -9 0 -6 15 -36 34 -68
137 -236 325 -620 341 -698 1 -5 7 -28 13 -50 52 -184 16 -316 -101 -377 -23
-12 -45 -23 -49 -24 -5 -1 -10 -3 -13 -4 -3 -1 -8 -3 -12 -4 -5 -2 -26 -7 -48
-14 -104 -29 -358 -32 -605 -7 -25 2 -72 7 -105 10 -33 3 -73 7 -90 10 -16 2
-46 6 -65 9 -34 4 -244 35 -285 41 -11 2 -38 5 -60 9 -22 3 -110 17 -195 32
-85 14 -168 28 -185 30 -16 3 -50 9 -75 14 -25 5 -58 12 -75 15 -16 2 -73 12
-125 21 -52 9 -102 18 -110 19 -8 1 -28 5 -45 8 -16 4 -41 9 -55 11 -164 28
-326 96 -407 169 -37 34 -87 122 -78 137 3 5 2 11 -3 14 -6 4 -8 81 -2 81 1 0
3 8 5 18 2 10 7 26 11 35 4 9 8 22 9 27 2 6 8 30 16 55 13 48 14 52 23 90 11
54 14 66 25 106 6 22 13 56 15 75 3 19 5 34 6 34 2 0 6 18 19 90 13 74 14 83
37 245 14 101 27 319 27 455 -1 104 -12 324 -19 359 -2 12 -7 50 -10 86 -3 36
-7 72 -9 80 -3 8 -7 40 -10 71 -3 31 -8 67 -10 80 -9 41 -14 71 -30 169 -8 52
-17 106 -20 120 -5 25 -13 75 -20 131 -3 19 -7 45 -10 59 -11 54 -26 181 -42
350 -10 105 -9 512 0 600 4 36 10 85 13 110 7 72 22 164 29 190 8 27 51 120
67 145 28 42 117 123 179 161 92 58 194 104 244 111 17 3 31 6 33 8 4 4 387
-4 477 -10z m1025 -50 c23 -4 96 -12 175 -20 17 -2 51 -6 77 -9 26 -3 73 -8
105 -11 32 -3 74 -8 93 -11 19 -3 64 -7 100 -10 36 -3 83 -7 105 -9 129 -11
185 -16 230 -20 45 -4 94 -8 265 -20 263 -20 555 -32 955 -41 154 -3 285 -6
290 -5 6 0 156 2 335 6 345 6 442 9 610 19 58 4 150 8 205 11 55 3 127 7 160
10 189 14 225 17 280 21 33 2 98 6 145 10 98 7 129 9 265 18 55 4 120 9 145
11 48 4 226 15 350 21 102 5 570 5 650 0 81 -5 204 -15 250 -21 19 -3 53 -7
75 -10 210 -26 334 -136 393 -347 15 -55 17 -104 14 -393 -1 -181 -3 -334 -3
-340 -1 -5 -1 -66 0 -135 0 -69 0 -132 -1 -140 -1 -22 13 -425 17 -495 4 -68
13 -196 19 -270 2 -27 7 -76 11 -107 4 -31 8 -72 10 -90 2 -30 9 -83 20 -165
3 -18 7 -50 10 -70 3 -21 8 -54 11 -73 4 -19 8 -48 10 -65 2 -16 8 -52 13 -80
5 -27 13 -72 17 -100 4 -27 8 -55 9 -61 2 -6 6 -35 9 -65 4 -30 8 -65 11 -79
26 -152 21 -527 -10 -740 -2 -14 -6 -45 -10 -70 -3 -25 -9 -58 -12 -75 -9 -41
-10 -44 -13 -50 -1 -3 -3 -8 -4 -12 -13 -58 -102 -184 -172 -242 -70 -58 -172
-112 -218 -114 -14 -1 -26 -5 -26 -8 0 -7 -150 -4 -335 6 -100 6 -358 10 -375
6 -3 -1 -68 -3 -145 -6 -157 -5 -262 -11 -380 -21 -44 -4 -96 -8 -115 -9 -19
-1 -71 -6 -115 -10 -44 -4 -98 -9 -120 -10 -52 -4 -158 -14 -215 -20 -25 -2
-76 -7 -115 -11 -38 -3 -86 -7 -105 -9 -164 -15 -361 -29 -600 -40 -112 -6
-447 -5 -535 0 -151 10 -227 17 -320 30 -22 3 -62 8 -90 11 -27 4 -54 9 -59
12 -5 3 -21 7 -35 8 -103 12 -315 72 -465 131 -98 39 -311 145 -337 169 -8 8
-20 14 -25 14 -6 0 -19 8 -30 18 -10 9 -39 30 -64 46 -25 16 -67 47 -95 70
-27 23 -61 50 -74 61 -41 34 -204 197 -243 245 -21 25 -49 59 -63 75 -71 85
-255 362 -255 384 0 5 10 8 23 5 165 -38 385 -37 555 2 65 15 200 61 217 74 6
4 21 11 34 15 14 4 29 11 35 16 6 5 39 27 72 48 151 95 276 235 359 400 25 50
71 179 81 226 2 11 7 31 9 45 20 91 26 322 11 425 -9 68 -31 160 -54 225 -25
70 -64 154 -74 158 -4 2 -8 10 -8 17 0 21 -107 163 -163 217 -71 68 -179 144
-256 180 -74 34 -190 74 -240 83 -19 3 -37 8 -41 10 -13 8 -160 19 -260 19
-104 -1 -207 -9 -245 -21 -11 -3 -27 -7 -35 -8 -44 -4 -202 -59 -227 -78 -7
-5 -13 -6 -13 -1 0 5 -4 4 -8 -1 -4 -6 -20 -17 -37 -25 -71 -36 -166 -109
-242 -187 -46 -47 -83 -83 -84 -81 -1 1 -2 14 -4 28 -1 14 -5 39 -9 55 -3 17
-9 45 -12 64 -3 18 -7 43 -10 55 -2 11 -6 32 -8 46 -3 14 -8 45 -11 70 -3 25
-7 54 -9 65 -2 11 -7 47 -11 80 -4 32 -9 68 -11 80 -2 11 -6 43 -9 70 -2 28
-7 59 -9 70 -4 19 -13 104 -21 190 -2 17 -6 55 -9 85 -9 79 -14 136 -20 213
-3 37 -8 95 -11 130 -3 34 -7 85 -9 114 -2 28 -7 56 -10 62 -4 6 -3 11 2 11 5
0 7 14 4 31 l-4 30 43 -6 c24 -3 55 -8 69 -10z m1085 -1589 c11 -3 39 -10 62
-16 90 -21 203 -96 277 -183 25 -30 46 -57 46 -62 0 -4 9 -20 21 -36 11 -16
17 -29 12 -29 -4 0 -3 -4 3 -8 17 -11 49 -119 59 -202 3 -23 6 -44 6 -48 1 -4
1 -9 0 -12 -1 -3 -4 -41 -6 -85 -4 -79 -8 -106 -21 -148 -11 -39 -57 -152 -63
-157 -3 -3 -12 -17 -20 -33 -27 -51 -138 -153 -208 -190 -105 -54 -171 -71
-283 -70 -125 0 -215 21 -304 71 -156 88 -276 274 -302 467 -6 48 -5 225 2
236 3 5 7 22 9 37 8 56 15 76 49 146 87 178 249 296 451 329 28 4 186 -1 210
-7z"/>
<path d="M1568 5955 c-2 -1 -26 -5 -55 -9 -28 -3 -57 -8 -65 -11 -7 -2 -24 -6
-38 -9 -73 -13 -241 -87 -278 -123 -7 -7 -17 -13 -20 -13 -17 0 -115 -106
-153 -165 -57 -90 -82 -182 -84 -319 -4 -181 44 -306 160 -421 39 -39 87 -79
106 -88 19 -10 53 -29 77 -42 23 -13 44 -23 45 -22 1 1 22 -7 47 -18 25 -10
52 -20 61 -21 40 -8 239 -79 284 -101 113 -58 148 -106 140 -198 -4 -54 -26
-88 -79 -124 -103 -71 -264 -74 -380 -7 -25 14 -66 38 -91 52 -163 93 -377
-48 -359 -237 2 -24 7 -51 11 -59 3 -8 7 -17 7 -20 5 -24 71 -87 122 -116 56
-32 224 -98 224 -89 0 2 13 0 29 -5 106 -30 332 -31 454 -1 20 5 37 7 37 5 0
-3 13 2 30 11 16 8 31 15 32 14 12 -9 109 36 185 84 75 48 203 191 203 226 0
6 5 11 10 11 6 0 9 3 8 8 -1 4 4 21 11 37 55 134 62 327 18 490 -8 30 -46 96
-79 140 -95 126 -229 203 -483 280 -222 67 -335 138 -335 209 0 81 31 136 97
169 97 49 242 43 356 -14 108 -55 209 -49 287 18 108 93 116 251 17 352 -33
35 -138 81 -215 96 -13 2 -32 7 -42 10 -41 13 -291 30 -302 20z"/>
<path d="M4941 5876 c-53 -19 -99 -66 -116 -117 -14 -40 -15 -138 -13 -740 2
-534 6 -698 15 -709 32 -38 83 -111 83 -119 0 -4 9 -16 20 -26 11 -10 20 -24
20 -32 0 -7 3 -13 8 -13 4 0 18 -18 32 -40 14 -22 28 -40 32 -40 5 0 8 -5 8
-10 0 -6 5 -16 11 -23 5 -7 34 -46 63 -87 36 -52 66 -83 96 -100 44 -24 50
-24 260 -24 227 0 330 8 398 28 9 3 28 7 42 10 36 6 171 53 206 71 16 8 35 15
42 15 6 0 12 3 12 8 0 4 23 18 50 31 28 14 50 29 50 33 0 4 7 8 15 8 8 0 15 5
15 10 0 6 4 10 10 10 24 0 165 140 225 225 46 65 125 214 125 237 0 8 3 18 7
22 4 3 8 17 10 29 2 12 7 33 13 47 16 44 22 112 24 259 2 147 0 173 -36 320
-80 327 -346 591 -688 684 -144 39 -146 39 -590 43 -312 2 -423 0 -449 -10z
m819 -459 c313 -71 452 -258 444 -595 -3 -163 -39 -269 -124 -365 -82 -93
-214 -161 -375 -193 -42 -8 -142 -18 -193 -18 -63 0 -64 2 -156 136 l-66 97 0
459 c0 445 1 459 20 480 19 21 26 21 203 17 110 -2 208 -9 247 -18z"/>
<path d="M7688 5864 c-52 -26 -93 -71 -119 -129 -9 -22 -74 -173 -144 -335
-69 -162 -135 -313 -145 -336 -10 -22 -42 -96 -70 -165 -29 -68 -57 -130 -62
-136 -6 -7 -7 -13 -3 -13 4 0 2 -6 -4 -13 -6 -8 -17 -31 -25 -53 -8 -21 -24
-61 -37 -89 -13 -27 -24 -52 -24 -55 -2 -7 -24 -60 -40 -95 -37 -82 -76 -173
-80 -185 -1 -3 -9 -23 -19 -45 -52 -117 -58 -140 -53 -196 3 -31 13 -71 22
-90 22 -43 79 -96 125 -116 40 -18 187 -24 240 -10 28 7 259 104 435 182 315
140 328 144 402 140 110 -6 192 -64 248 -175 14 -28 40 -66 58 -84 114 -116
312 -83 387 65 39 75 35 143 -14 253 -43 94 -111 251 -111 256 -1 3 -18 41
-38 84 -20 43 -37 83 -37 87 0 5 -16 41 -36 81 -19 40 -37 80 -39 88 -3 12
-76 182 -242 560 -8 19 -22 50 -29 68 -30 69 -43 99 -73 165 -17 37 -31 70
-31 73 0 3 -13 35 -30 70 -59 128 -131 173 -277 172 -73 -1 -97 -5 -135 -24z
m185 -844 c33 -1 62 -47 109 -172 65 -173 62 -206 -25 -246 -130 -61 -207 -92
-230 -92 -56 0 -106 47 -107 99 0 27 115 342 138 379 15 23 66 43 90 36 8 -2
19 -4 25 -4z"/>
</g>
</svg>
